<mxfile host="Electron" agent="Mozilla/5.0 (Windows NT 10.0; Win64; x64) AppleWebKit/537.36 (KHTML, like Gecko) draw.io/24.7.17 Chrome/128.0.6613.36 Electron/32.0.1 Safari/537.36" version="24.7.17">
  <diagram id="NlMapl3Toh_uuyZzzVxs" name="Page-1">
    <mxGraphModel dx="1912" dy="2006" grid="1" gridSize="10" guides="1" tooltips="1" connect="1" arrows="1" fold="1" page="1" pageScale="1" pageWidth="583" pageHeight="827" math="0" shadow="0">
      <root>
        <mxCell id="0" />
        <mxCell id="1" parent="0" />
        <mxCell id="28" value="Transfer Routs" style="image;html=1;image=img/lib/clip_art/general/Empty_Folder_128x128.png;labelBackgroundColor=none;" parent="1" vertex="1">
          <mxGeometry x="81" y="-300" width="40" height="40" as="geometry" />
        </mxCell>
        <mxCell id="lLaruEZ5CqgSb4Y0FxV7-38" value=".csv" style="shape=document;whiteSpace=wrap;html=1;boundedLbl=1;fillColor=none;" parent="1" vertex="1">
          <mxGeometry x="121" y="-295" width="40" height="30" as="geometry" />
        </mxCell>
        <mxCell id="xtUtW4Fz_dIdqvcTYJm--38" style="edgeStyle=orthogonalEdgeStyle;rounded=0;orthogonalLoop=1;jettySize=auto;html=1;exitX=0.5;exitY=1;exitDx=0;exitDy=0;entryX=0.5;entryY=0;entryDx=0;entryDy=0;" edge="1" parent="1" source="lLaruEZ5CqgSb4Y0FxV7-67" target="28">
          <mxGeometry relative="1" as="geometry" />
        </mxCell>
        <mxCell id="lLaruEZ5CqgSb4Y0FxV7-67" value="JSON Safe" style="rounded=1;whiteSpace=wrap;html=1;fillColor=#d5e8d4;strokeColor=#82b366;gradientColor=#97d077;" parent="1" vertex="1">
          <mxGeometry x="40" y="-390" width="120" height="60" as="geometry" />
        </mxCell>
        <mxCell id="ZroCqvRowMLRcRpIg0qQ-59" style="edgeStyle=orthogonalEdgeStyle;rounded=1;orthogonalLoop=1;jettySize=auto;html=1;exitX=0.5;exitY=1;exitDx=0;exitDy=0;entryX=0.5;entryY=0;entryDx=0;entryDy=0;curved=0;" parent="1" source="ZroCqvRowMLRcRpIg0qQ-97" target="ZroCqvRowMLRcRpIg0qQ-58" edge="1">
          <mxGeometry relative="1" as="geometry">
            <mxPoint x="100" y="-510" as="sourcePoint" />
          </mxGeometry>
        </mxCell>
        <mxCell id="ZroCqvRowMLRcRpIg0qQ-55" value="Start" style="ellipse;whiteSpace=wrap;html=1;aspect=fixed;fillColor=none;" parent="1" vertex="1">
          <mxGeometry x="61" y="-780" width="80" height="80" as="geometry" />
        </mxCell>
        <mxCell id="xtUtW4Fz_dIdqvcTYJm--36" style="edgeStyle=orthogonalEdgeStyle;rounded=0;orthogonalLoop=1;jettySize=auto;html=1;exitX=0.5;exitY=1;exitDx=0;exitDy=0;entryX=0.5;entryY=0;entryDx=0;entryDy=0;" edge="1" parent="1" source="ZroCqvRowMLRcRpIg0qQ-58" target="ZroCqvRowMLRcRpIg0qQ-61">
          <mxGeometry relative="1" as="geometry" />
        </mxCell>
        <mxCell id="ZroCqvRowMLRcRpIg0qQ-58" value="Download Location Data" style="rounded=1;whiteSpace=wrap;html=1;fillColor=#d5e8d4;strokeColor=#82b366;gradientColor=#97d077;" parent="1" vertex="1">
          <mxGeometry x="41" y="-580" width="120" height="60" as="geometry" />
        </mxCell>
        <mxCell id="xtUtW4Fz_dIdqvcTYJm--37" style="edgeStyle=orthogonalEdgeStyle;rounded=0;orthogonalLoop=1;jettySize=auto;html=1;exitX=0.5;exitY=1;exitDx=0;exitDy=0;entryX=0.5;entryY=0;entryDx=0;entryDy=0;" edge="1" parent="1" source="ZroCqvRowMLRcRpIg0qQ-61" target="lLaruEZ5CqgSb4Y0FxV7-67">
          <mxGeometry relative="1" as="geometry" />
        </mxCell>
        <mxCell id="ZroCqvRowMLRcRpIg0qQ-61" value="Create Transfer Routs Dataframe" style="rounded=1;whiteSpace=wrap;html=1;fillColor=#d5e8d4;strokeColor=#82b366;gradientColor=#97d077;" parent="1" vertex="1">
          <mxGeometry x="40" y="-490" width="120" height="60" as="geometry" />
        </mxCell>
        <mxCell id="ZroCqvRowMLRcRpIg0qQ-98" value="" style="edgeStyle=orthogonalEdgeStyle;rounded=1;orthogonalLoop=1;jettySize=auto;html=1;exitX=0.5;exitY=1;exitDx=0;exitDy=0;entryX=0.5;entryY=0;entryDx=0;entryDy=0;curved=0;" parent="1" source="ZroCqvRowMLRcRpIg0qQ-55" target="ZroCqvRowMLRcRpIg0qQ-97" edge="1">
          <mxGeometry relative="1" as="geometry">
            <mxPoint x="101" y="-700" as="sourcePoint" />
            <mxPoint x="100" y="-570" as="targetPoint" />
          </mxGeometry>
        </mxCell>
        <mxCell id="ZroCqvRowMLRcRpIg0qQ-97" value="Define Environment and NOC" style="rounded=1;whiteSpace=wrap;html=1;fillColor=#f8cecc;strokeColor=#b85450;gradientColor=#ea6b66;" parent="1" vertex="1">
          <mxGeometry x="41" y="-670" width="120" height="60" as="geometry" />
        </mxCell>
      </root>
    </mxGraphModel>
  </diagram>
</mxfile>
